<svg width="175" height="62" viewBox="0 0 175 62" fill="none" xmlns="http://www.w3.org/2000/svg">
<path d="M35.717 46.728C36.2717 46.728 36.6983 46.984 36.997 47.496C37.3383 48.008 37.509 48.712 37.509 49.608C37.509 51.3147 37.1037 52.6373 36.293 53.576C34.3303 55.8373 32.3037 57.6933 30.213 59.144C28.165 60.5947 25.8183 61.32 23.173 61.32C20.997 61.32 19.3543 60.7013 18.245 59.464C17.1357 58.184 16.581 56.3493 16.581 53.96C16.581 52.7653 16.8797 50.632 17.477 47.56C18.0317 44.872 18.309 43.016 18.309 41.992C18.309 41.3093 18.0743 40.968 17.605 40.968C17.0503 40.968 16.261 41.6933 15.237 43.144C14.213 44.552 13.189 46.4293 12.165 48.776C11.141 51.1227 10.309 53.5973 9.669 56.2C8.85833 59.6133 6.853 61.32 3.653 61.32C2.373 61.32 1.51967 60.872 1.093 59.976C0.709 59.0373 0.517 57.3733 0.517 54.984C0.517 53.6187 0.538333 52.5307 0.581 51.72L0.645 46.6C0.645 40.0293 1.30633 33.1813 2.629 26.056C3.99433 18.9307 5.97833 12.9573 8.581 8.136C11.2263 3.272 14.3837 0.839996 18.053 0.839996C20.0157 0.839996 21.5943 1.69333 22.789 3.4C24.0263 5.064 24.645 7.24 24.645 9.928C24.645 14.2373 23.3863 18.7173 20.869 23.368C18.3517 27.976 14.2557 33.3733 8.581 39.56C8.453 41.7787 8.389 44.0613 8.389 46.408C9.797 42.7813 11.3543 39.8373 13.061 37.576C14.8103 35.272 16.517 33.6293 18.181 32.648C19.8877 31.6667 21.445 31.176 22.853 31.176C25.6263 31.176 27.013 32.5627 27.013 35.336C27.013 37 26.5437 40.008 25.605 44.36C24.7943 48.072 24.389 50.5253 24.389 51.72C24.389 53.4267 25.0077 54.28 26.245 54.28C27.0983 54.28 28.101 53.768 29.253 52.744C30.4477 51.6773 32.0263 49.9707 33.989 47.624C34.501 47.0267 35.077 46.728 35.717 46.728ZM16.709 7.176C15.941 7.176 15.0877 8.28533 14.149 10.504C13.2103 12.68 12.293 15.6453 11.397 19.4C10.5437 23.112 9.83967 27.1653 9.285 31.56C11.9303 28.4453 14.1063 25.0533 15.813 21.384C17.5623 17.7147 18.437 14.3867 18.437 11.4C18.437 10.0347 18.2877 8.98933 17.989 8.264C17.6903 7.53866 17.2637 7.176 16.709 7.176ZM60.866 46.728C61.4207 46.728 61.8473 46.984 62.146 47.496C62.4873 48.008 62.658 48.712 62.658 49.608C62.658 51.3147 62.2527 52.6373 61.442 53.576C59.8633 55.496 57.6233 57.2667 54.722 58.888C51.8633 60.5093 48.7913 61.32 45.506 61.32C41.026 61.32 37.5487 60.104 35.074 57.672C32.5993 55.24 31.362 51.912 31.362 47.688C31.362 44.744 31.9807 42.0133 33.218 39.496C34.4553 36.936 36.162 34.9093 38.338 33.416C40.5567 31.9227 43.0527 31.176 45.826 31.176C48.3007 31.176 50.2847 31.9227 51.778 33.416C53.2713 34.8667 54.018 36.8507 54.018 39.368C54.018 42.312 52.9513 44.8507 50.818 46.984C48.7273 49.0747 45.1647 50.7387 40.13 51.976C41.1967 53.9387 43.2233 54.92 46.21 54.92C48.13 54.92 50.306 54.2587 52.738 52.936C55.2127 51.5707 57.346 49.8 59.138 47.624C59.65 47.0267 60.226 46.728 60.866 46.728ZM44.738 37.448C43.1593 37.448 41.8153 38.3653 40.706 40.2C39.6393 42.0347 39.106 44.2533 39.106 46.856V46.984C41.6233 46.3867 43.6073 45.4907 45.058 44.296C46.5087 43.1013 47.234 41.7147 47.234 40.136C47.234 39.3253 46.9993 38.6853 46.53 38.216C46.1033 37.704 45.506 37.448 44.738 37.448ZM65.0065 61.32C62.3612 61.32 60.2492 60.36 58.6705 58.44C57.0918 56.52 56.3025 54.0027 56.3025 50.888C56.3025 47.4747 57.0918 44.2533 58.6705 41.224C60.2492 38.152 62.3398 35.6987 64.9425 33.864C67.5878 31.9867 70.3825 31.048 73.3265 31.048C74.2652 31.048 74.8838 31.24 75.1825 31.624C75.5238 31.9653 75.8012 32.6053 76.0145 33.544C76.9105 33.3733 77.8492 33.288 78.8305 33.288C80.9212 33.288 81.9665 34.0347 81.9665 35.528C81.9665 36.424 81.6465 38.5573 81.0065 41.928C80.0252 46.8347 79.5345 50.248 79.5345 52.168C79.5345 52.808 79.6838 53.32 79.9825 53.704C80.3238 54.088 80.7505 54.28 81.2625 54.28C82.0732 54.28 83.0545 53.768 84.2065 52.744C85.3585 51.6773 86.9158 49.9707 88.8785 47.624C89.3905 47.0267 89.9665 46.728 90.6065 46.728C91.1612 46.728 91.5878 46.984 91.8865 47.496C92.2278 48.008 92.3985 48.712 92.3985 49.608C92.3985 51.3147 91.9932 52.6373 91.1825 53.576C89.4332 55.752 87.5772 57.5867 85.6145 59.08C83.6518 60.5733 81.7532 61.32 79.9185 61.32C78.5105 61.32 77.2092 60.8507 76.0145 59.912C74.8625 58.9307 73.9878 57.608 73.3905 55.944C71.1718 59.528 68.3772 61.32 65.0065 61.32ZM67.3105 54.856C68.2492 54.856 69.1452 54.3013 69.9985 53.192C70.8518 52.0827 71.4705 50.6107 71.8545 48.776L74.2225 37C72.4305 37.0427 70.7665 37.7253 69.2305 39.048C67.7372 40.328 66.5425 42.0347 65.6465 44.168C64.7505 46.3013 64.3025 48.5627 64.3025 50.952C64.3025 52.2747 64.5585 53.256 65.0705 53.896C65.6252 54.536 66.3718 54.856 67.3105 54.856ZM123.549 46.728C124.104 46.728 124.53 46.984 124.829 47.496C125.17 48.008 125.341 48.712 125.341 49.608C125.341 51.3147 124.936 52.6373 124.125 53.576C122.376 55.7093 120.456 57.544 118.365 59.08C116.274 60.5733 114.205 61.32 112.157 61.32C108.914 61.32 106.44 59.4213 104.733 55.624C102.941 57.8853 101.362 59.4 99.997 60.168C98.6743 60.936 97.117 61.32 95.325 61.32C92.7223 61.32 90.5677 60.36 88.861 58.44C87.197 56.4773 86.365 53.9387 86.365 50.824C86.365 47.4107 87.0903 44.2533 88.541 41.352C89.9917 38.408 91.9757 36.0187 94.493 34.184C97.053 32.3067 99.9117 31.1973 103.069 30.856C103.88 22.5787 105.416 15.5173 107.677 9.672C109.981 3.784 112.989 0.839996 116.701 0.839996C118.536 0.839996 120.05 1.672 121.245 3.336C122.482 5 123.101 7.51733 123.101 10.888C123.101 15.6667 121.928 21.256 119.581 27.656C117.234 34.056 114.098 40.6267 110.173 47.368C110.344 49.8427 110.706 51.6133 111.261 52.68C111.858 53.7467 112.605 54.28 113.501 54.28C114.653 54.28 115.826 53.768 117.021 52.744C118.216 51.72 119.816 50.0133 121.821 47.624C122.333 47.0267 122.909 46.728 123.549 46.728ZM115.997 7.112C115.186 7.112 114.376 8.56266 113.565 11.464C112.754 14.3227 112.05 18.0773 111.453 22.728C110.898 27.3787 110.493 32.2427 110.237 37.32C115.016 26.9093 117.405 18.5467 117.405 12.232C117.405 10.6107 117.256 9.352 116.957 8.456C116.701 7.56 116.381 7.112 115.997 7.112ZM97.565 54.856C98.3757 54.856 99.1863 54.536 99.997 53.896C100.808 53.2133 101.832 51.976 103.069 50.184C102.642 47.88 102.429 45.2987 102.429 42.44C102.429 41.416 102.472 39.752 102.557 37.448C100.21 38.1733 98.2477 39.752 96.669 42.184C95.133 44.5733 94.365 47.24 94.365 50.184C94.365 53.2987 95.4317 54.856 97.565 54.856ZM148.679 46.728C149.233 46.728 149.66 46.984 149.958 47.496C150.3 48.008 150.471 48.712 150.471 49.608C150.471 51.3147 150.065 52.6373 149.255 53.576C147.676 55.496 145.436 57.2667 142.535 58.888C139.676 60.5093 136.604 61.32 133.319 61.32C128.839 61.32 125.361 60.104 122.887 57.672C120.412 55.24 119.174 51.912 119.174 47.688C119.174 44.744 119.793 42.0133 121.031 39.496C122.268 36.936 123.975 34.9093 126.151 33.416C128.369 31.9227 130.865 31.176 133.639 31.176C136.113 31.176 138.097 31.9227 139.591 33.416C141.084 34.8667 141.831 36.8507 141.831 39.368C141.831 42.312 140.764 44.8507 138.631 46.984C136.54 49.0747 132.977 50.7387 127.943 51.976C129.009 53.9387 131.036 54.92 134.023 54.92C135.943 54.92 138.119 54.2587 140.551 52.936C143.025 51.5707 145.159 49.8 146.951 47.624C147.463 47.0267 148.039 46.728 148.679 46.728ZM132.551 37.448C130.972 37.448 129.628 38.3653 128.519 40.2C127.452 42.0347 126.919 44.2533 126.919 46.856V46.984C129.436 46.3867 131.42 45.4907 132.871 44.296C134.321 43.1013 135.047 41.7147 135.047 40.136C135.047 39.3253 134.812 38.6853 134.343 38.216C133.916 37.704 133.319 37.448 132.551 37.448ZM171.116 39.944C172.054 39.944 172.844 40.2853 173.484 40.968C174.166 41.608 174.507 42.4187 174.507 43.4C174.507 43.9547 174.38 44.552 174.124 45.192C173.441 46.7707 172.481 48.0933 171.244 49.16C170.006 50.2267 168.641 50.76 167.148 50.76C165.953 50.76 164.929 50.3333 164.076 49.48C163.265 48.6267 162.86 47.4747 162.86 46.024C162.86 45.2133 162.902 44.3387 162.988 43.4C163.073 42.7173 163.116 42.248 163.116 41.992C163.116 41.6507 163.03 41.3947 162.86 41.224C162.732 41.0533 162.561 40.968 162.348 40.968C161.75 40.968 160.94 41.6933 159.916 43.144C158.892 44.552 157.868 46.4293 156.844 48.776C155.82 51.1227 154.988 53.5973 154.348 56.2C153.878 58.248 153.345 59.6133 152.748 60.296C152.15 60.9787 151.169 61.32 149.804 61.32C148.182 61.32 147.03 60.4667 146.348 58.76C145.708 57.0533 145.388 54.3227 145.388 50.568C145.388 45.0213 146.177 39.752 147.756 34.76C148.14 33.5227 148.758 32.6267 149.612 32.072C150.508 31.4747 151.745 31.176 153.324 31.176C154.177 31.176 154.774 31.2827 155.116 31.496C155.457 31.7093 155.628 32.1147 155.628 32.712C155.628 33.3947 155.308 34.9307 154.668 37.32C154.241 39.0267 153.9 40.52 153.644 41.8C153.388 43.08 153.174 44.6587 153.004 46.536C154.412 42.8667 155.99 39.88 157.74 37.576C159.489 35.272 161.196 33.6293 162.86 32.648C164.524 31.6667 166.038 31.176 167.404 31.176C168.641 31.176 169.58 31.5387 170.22 32.264C170.902 32.9467 171.244 33.9707 171.244 35.336C171.244 36.1467 171.009 37.6827 170.54 39.944H171.116Z" fill="#175676"/>
</svg>
